<svg xmlns="http://www.w3.org/2000/svg" width="32.907" height="29.25" viewBox="0 0 32.907 29.25">
  <path id="Icon_awesome-spell-check" data-name="Icon awesome-spell-check" d="M15.539,14.625h5.219a4.752,4.752,0,0,0,4.828-4.3,4.56,4.56,0,0,0-1.443-3.6,4.559,4.559,0,0,0,.518-2.566A4.767,4.767,0,0,0,19.824,0H15.539a.914.914,0,0,0-.914.914v12.8A.914.914,0,0,0,15.539,14.625ZM17.824,3.2H20.11a1.371,1.371,0,1,1,0,2.742H17.824Zm0,5.484h3.2a1.371,1.371,0,0,1,0,2.742h-3.2ZM8.862,1.271A1.828,1.828,0,0,0,7.121,0H5.676A1.828,1.828,0,0,0,3.935,1.271l-3.9,12.2a.914.914,0,0,0,.88,1.158H2.338a.914.914,0,0,0,.881-.67L3.9,11.883H8.9l.682,2.072a.914.914,0,0,0,.881.67h1.424a.914.914,0,0,0,.881-1.158ZM5.106,8.227,6.4,4.3,7.691,8.227ZM32.642,15.8l-2.583-2.588a.907.907,0,0,0-1.291,0l-8.655,8.655-3.166-3.171a.907.907,0,0,0-1.291,0L13.07,21.279a.914.914,0,0,0,0,1.291l6.4,6.41a.908.908,0,0,0,1.291,0L32.642,17.086a.914.914,0,0,0,0-1.291Z" transform="translate(-0.001)" fill="#112949"/>
</svg>
