<?xml version="1.0" encoding="UTF-8"?>
<!DOCTYPE svg PUBLIC "-//W3C//DTD SVG 1.1//EN" "http://www.w3.org/Graphics/SVG/1.1/DTD/svg11.dtd">
<svg xmlns="http://www.w3.org/2000/svg" version="1.1" width="35px" height="35px" style="shape-rendering:geometricPrecision; text-rendering:geometricPrecision; image-rendering:optimizeQuality; fill-rule:evenodd; clip-rule:evenodd" xmlns:xlink="http://www.w3.org/1999/xlink">
<g><path style="opacity:1" fill="#f4f4f4" d="M -0.5,-0.5 C 11.1667,-0.5 22.8333,-0.5 34.5,-0.5C 34.5,11.1667 34.5,22.8333 34.5,34.5C 31.5,34.5 28.5,34.5 25.5,34.5C 30.1915,31.0564 31.6915,26.3898 30,20.5C 28.6667,19.1667 27.3333,19.1667 26,20.5C 25.7883,23.7577 25.2883,26.9243 24.5,30C 18.1667,30.6667 11.8333,30.6667 5.5,30C 5,29.5 4.5,29 4,28.5C 3.33333,22.1667 3.33333,15.8333 4,9.5C 7.07566,8.71173 10.2423,8.21173 13.5,8C 14.9269,4.08774 13.4269,2.58774 9,3.5C 5.16028,3.33912 1.99361,4.67245 -0.5,7.5C -0.5,4.83333 -0.5,2.16667 -0.5,-0.5 Z"/></g>
<g><path style="opacity:1" fill="#000000" d="M 26.5,0.5 C 33.761,0.652082 35.261,3.65208 31,9.5C 28.8333,7.33333 26.6667,5.16667 24.5,3C 25.3805,2.2917 26.0472,1.45837 26.5,0.5 Z"/></g>
<g><path style="opacity:1" fill="#0e0e0e" d="M 25.5,34.5 C 18.1667,34.5 10.8333,34.5 3.5,34.5C 1.83333,33.5 0.5,32.1667 -0.5,30.5C -0.5,22.8333 -0.5,15.1667 -0.5,7.5C 1.99361,4.67245 5.16028,3.33912 9,3.5C 13.4269,2.58774 14.9269,4.08774 13.5,8C 10.2423,8.21173 7.07566,8.71173 4,9.5C 3.33333,15.8333 3.33333,22.1667 4,28.5C 4.5,29 5,29.5 5.5,30C 11.8333,30.6667 18.1667,30.6667 24.5,30C 25.2883,26.9243 25.7883,23.7577 26,20.5C 27.3333,19.1667 28.6667,19.1667 30,20.5C 31.6915,26.3898 30.1915,31.0564 25.5,34.5 Z"/></g>
<g><path style="opacity:1" fill="#060606" d="M 22.5,4.5 C 24.9635,6.46114 27.2968,8.62781 29.5,11C 25.5,15 21.5,19 17.5,23C 14.6883,24.5489 11.6883,25.3822 8.5,25.5C 8.61778,22.3117 9.45112,19.3117 11,16.5C 15.037,12.631 18.8704,8.63104 22.5,4.5 Z"/></g>
<g><path style="opacity:1" fill="#f8f8f8" d="M -0.5,30.5 C 0.5,32.1667 1.83333,33.5 3.5,34.5C 2.16667,34.5 0.833333,34.5 -0.5,34.5C -0.5,33.1667 -0.5,31.8333 -0.5,30.5 Z"/></g>
</svg>
